<svg width="28" height="14" viewBox="0 0 28 14" fill="none" xmlns="http://www.w3.org/2000/svg">
<path d="M6.56423 13.136C5.64623 13.136 4.80189 12.9887 4.03123 12.694C3.26056 12.388 2.59189 11.963 2.02523 11.419C1.45856 10.8637 1.01656 10.2177 0.699227 9.481C0.381893 8.74433 0.223227 7.934 0.223227 7.05C0.223227 6.166 0.381893 5.35567 0.699227 4.619C1.01656 3.88233 1.45856 3.242 2.02523 2.698C2.60323 2.14267 3.27756 1.71767 4.04823 1.423C4.81889 1.117 5.66889 0.964 6.59823 0.964C7.53889 0.964 8.40023 1.117 9.18223 1.423C9.96423 1.729 10.6272 2.188 11.1712 2.8L10.1172 3.854C9.62989 3.378 9.09723 3.03233 8.51923 2.817C7.95256 2.59033 7.33489 2.477 6.66623 2.477C5.98623 2.477 5.35156 2.59033 4.76223 2.817C4.18423 3.04367 3.67989 3.361 3.24923 3.769C2.82989 4.177 2.50123 4.66433 2.26323 5.231C2.03656 5.78633 1.92323 6.39267 1.92323 7.05C1.92323 7.696 2.03656 8.30233 2.26323 8.869C2.50123 9.42433 2.82989 9.91167 3.24923 10.331C3.67989 10.739 4.18423 11.0563 4.76223 11.283C5.34023 11.5097 5.96923 11.623 6.64923 11.623C7.28389 11.623 7.89023 11.5267 8.46823 11.334C9.05756 11.13 9.60156 10.7957 10.1002 10.331L11.0692 11.623C10.4799 12.1217 9.78856 12.5013 8.99523 12.762C8.21323 13.0113 7.40289 13.136 6.56423 13.136ZM9.43723 11.402V6.982H11.0692V11.623L9.43723 11.402ZM14.3241 13V1.1H16.0241V13H14.3241ZM21.1168 6.727H27.2538V8.189H21.1168V6.727ZM21.2868 13H19.5868V1.1H27.9848V2.579H21.2868V13Z" fill="#6A6A6A"/>
</svg>
