<svg width="10" height="22" viewBox="0 0 10 22" fill="none" xmlns="http://www.w3.org/2000/svg">
<path d="M1.508 8.244C1.09733 8.244 0.745333 8.10467 0.452 7.826C0.158667 7.53267 0.0120001 7.166 0.0120001 6.726C0.0120001 6.286 0.158667 5.92667 0.452 5.648C0.745333 5.36933 1.09733 5.23 1.508 5.23C1.904 5.23 2.24133 5.36933 2.52 5.648C2.81333 5.92667 2.96 6.286 2.96 6.726C2.96 7.166 2.81333 7.53267 2.52 7.826C2.24133 8.10467 1.904 8.244 1.508 8.244ZM1.508 17.132C1.09733 17.132 0.745333 16.9927 0.452 16.714C0.158667 16.4207 0.0120001 16.054 0.0120001 15.614C0.0120001 15.174 0.158667 14.8147 0.452 14.536C0.745333 14.2573 1.09733 14.118 1.508 14.118C1.904 14.118 2.24133 14.2573 2.52 14.536C2.81333 14.8147 2.96 15.174 2.96 15.614C2.96 16.054 2.81333 16.4207 2.52 16.714C2.24133 16.9927 1.904 17.132 1.508 17.132ZM6.69038 21.268H4.68838C5.58304 19.7133 6.23571 18.0927 6.64638 16.406C7.05704 14.7047 7.26238 12.8933 7.26238 10.972C7.26238 9.05067 7.05704 7.24667 6.64638 5.56C6.23571 3.85867 5.58304 2.23067 4.68838 0.675999H6.69038C7.55571 1.98133 8.20838 3.52133 8.64838 5.296C9.10304 7.056 9.33038 8.948 9.33038 10.972C9.33038 12.996 9.10304 14.888 8.64838 16.648C8.20838 18.3933 7.55571 19.9333 6.69038 21.268Z" fill="#6A6A6A"/>
</svg>
